<?xml version="1.0" encoding="UTF-8" standalone="no"?>
<!DOCTYPE svg PUBLIC "-//W3C//DTD SVG 1.0//EN" "http://www.w3.org/TR/2001/PR-SVG-20010719/DTD/svg10.dtd">
<svg width="22.5cm" height="4.5cm" viewBox="135 259 886 165" xmlns="http://www.w3.org/2000/svg" xmlns:xlink="http://www.w3.org/1999/xlink">
  <g>
    <rect style="fill: #ffffff" x="620" y="320" width="160" height="42"/>
    <rect style="fill: none; fill-opacity:0; stroke-width: 2; stroke: #000000" x="620" y="320" width="160" height="42"/>
    <text font-size="16" style="fill: #000000;text-anchor:middle;font-family:courier new;font-style:normal;font-weight:normal" x="700" y="345.85">
      <tspan x="700" y="345.85">@NonRaw Object</tspan>
    </text>
  </g>
  <g>
    <rect style="fill: #ffffff" x="860" y="320" width="160" height="42"/>
    <rect style="fill: none; fill-opacity:0; stroke-width: 2; stroke: #000000" x="860" y="320" width="160" height="42"/>
    <text font-size="16" style="fill: #000000;text-anchor:middle;font-family:courier new;font-style:normal;font-weight:normal" x="940" y="345.85">
      <tspan x="940" y="345.85">@Raw Date</tspan>
    </text>
  </g>
  <g>
    <rect style="fill: #ffffff" x="740" y="260" width="160" height="42"/>
    <rect style="fill: none; fill-opacity:0; stroke-width: 2; stroke: #000000" x="740" y="260" width="160" height="42"/>
    <text font-size="16" style="fill: #000000;text-anchor:middle;font-family:courier new;font-style:normal;font-weight:normal" x="820" y="285.85">
      <tspan x="820" y="285.85">@Raw Object</tspan>
    </text>
  </g>
  <g>
    <line style="fill: none; fill-opacity:0; stroke-width: 2; stroke: #000000" x1="700" y1="320" x2="805.166" y2="304.225"/>
    <polygon style="fill: #000000" points="806.204,311.148 819.011,302.148 804.128,297.303 "/>
    <polygon style="fill: none; fill-opacity:0; stroke-width: 2; stroke: #000000" points="806.204,311.148 819.011,302.148 804.128,297.303 "/>
  </g>
  <g>
    <line style="fill: none; fill-opacity:0; stroke-width: 2; stroke: #000000" x1="940" y1="320" x2="834.834" y2="304.225"/>
    <polygon style="fill: #000000" points="835.872,297.303 820.989,302.148 833.796,311.148 "/>
    <polygon style="fill: none; fill-opacity:0; stroke-width: 2; stroke: #000000" points="835.872,297.303 820.989,302.148 833.796,311.148 "/>
  </g>
  <g>
    <line style="fill: none; fill-opacity:0; stroke-width: 2; stroke: #000000" x1="820" y1="380" x2="714.834" y2="364.225"/>
    <polygon style="fill: #000000" points="715.872,357.303 700.989,362.148 713.796,371.148 "/>
    <polygon style="fill: none; fill-opacity:0; stroke-width: 2; stroke: #000000" points="715.872,357.303 700.989,362.148 713.796,371.148 "/>
  </g>
  <g>
    <line style="fill: none; fill-opacity:0; stroke-width: 2; stroke: #000000" x1="820" y1="380" x2="925.166" y2="364.225"/>
    <polygon style="fill: #000000" points="926.204,371.148 939.011,362.148 924.128,357.303 "/>
    <polygon style="fill: none; fill-opacity:0; stroke-width: 2; stroke: #000000" points="926.204,371.148 939.011,362.148 924.128,357.303 "/>
  </g>
  <g>
    <rect style="fill: #ffffff" x="740" y="380" width="160" height="42"/>
    <rect style="fill: none; fill-opacity:0; stroke-width: 2; stroke: #000000" x="740" y="380" width="160" height="42"/>
    <text font-size="16" style="fill: #000000;text-anchor:middle;font-family:courier new;font-style:normal;font-weight:normal" x="820" y="405.85">
      <tspan x="820" y="405.85">@NonRaw Date</tspan>
    </text>
  </g>
  <g>
    <rect style="fill: #ffffff" x="136.402" y="320.9" width="160" height="42"/>
    <rect style="fill: none; fill-opacity:0; stroke-width: 2; stroke: #000000" x="136.402" y="320.9" width="160" height="42"/>
    <text font-size="16" style="fill: #000000;text-anchor:middle;font-family:courier new;font-style:normal;font-weight:normal" x="216.402" y="346.75">
      <tspan x="216.402" y="346.75">@NonNull Object</tspan>
    </text>
  </g>
  <g>
    <rect style="fill: #ffffff" x="376.402" y="320.9" width="160" height="42"/>
    <rect style="fill: none; fill-opacity:0; stroke-width: 2; stroke: #000000" x="376.402" y="320.9" width="160" height="42"/>
    <text font-size="16" style="fill: #000000;text-anchor:middle;font-family:courier new;font-style:normal;font-weight:normal" x="456.402" y="346.75">
      <tspan x="456.402" y="346.75">@Nullable Date</tspan>
    </text>
  </g>
  <g>
    <rect style="fill: #ffffff" x="256.402" y="260.9" width="160" height="42"/>
    <rect style="fill: none; fill-opacity:0; stroke-width: 2; stroke: #000000" x="256.402" y="260.9" width="160" height="42"/>
    <text font-size="16" style="fill: #000000;text-anchor:middle;font-family:courier new;font-style:normal;font-weight:normal" x="336.402" y="286.75">
      <tspan x="336.402" y="286.75">@Nullable Object</tspan>
    </text>
  </g>
  <g>
    <line style="fill: none; fill-opacity:0; stroke-width: 2; stroke: #000000" x1="216.402" y1="320.9" x2="321.568" y2="305.125"/>
    <polygon style="fill: #000000" points="322.606,312.048 335.413,303.048 320.53,298.203 "/>
    <polygon style="fill: none; fill-opacity:0; stroke-width: 2; stroke: #000000" points="322.606,312.048 335.413,303.048 320.53,298.203 "/>
  </g>
  <g>
    <line style="fill: none; fill-opacity:0; stroke-width: 2; stroke: #000000" x1="456.402" y1="320.9" x2="351.236" y2="305.125"/>
    <polygon style="fill: #000000" points="352.274,298.203 337.391,303.048 350.198,312.048 "/>
    <polygon style="fill: none; fill-opacity:0; stroke-width: 2; stroke: #000000" points="352.274,298.203 337.391,303.048 350.198,312.048 "/>
  </g>
  <g>
    <line style="fill: none; fill-opacity:0; stroke-width: 2; stroke: #000000" x1="336.402" y1="380.9" x2="231.236" y2="365.125"/>
    <polygon style="fill: #000000" points="232.274,358.203 217.391,363.048 230.198,372.048 "/>
    <polygon style="fill: none; fill-opacity:0; stroke-width: 2; stroke: #000000" points="232.274,358.203 217.391,363.048 230.198,372.048 "/>
  </g>
  <g>
    <line style="fill: none; fill-opacity:0; stroke-width: 2; stroke: #000000" x1="336.402" y1="380.9" x2="441.568" y2="365.125"/>
    <polygon style="fill: #000000" points="442.606,372.048 455.413,363.048 440.53,358.203 "/>
    <polygon style="fill: none; fill-opacity:0; stroke-width: 2; stroke: #000000" points="442.606,372.048 455.413,363.048 440.53,358.203 "/>
  </g>
  <g>
    <rect style="fill: #ffffff" x="256.402" y="380.9" width="160" height="42"/>
    <rect style="fill: none; fill-opacity:0; stroke-width: 2; stroke: #000000" x="256.402" y="380.9" width="160" height="42"/>
    <text font-size="16" style="fill: #000000;text-anchor:middle;font-family:courier new;font-style:normal;font-weight:normal" x="336.402" y="406.75">
      <tspan x="336.402" y="406.75">@NonNull Date</tspan>
    </text>
  </g>
  <text font-size="12.8" style="fill: #000000;text-anchor:start;font-family:courier new;font-style:normal;font-weight:normal" x="820" y="281">
    <tspan x="820" y="281"></tspan>
  </text>
</svg>
