<?xml version="1.0" encoding="UTF-8" standalone="no"?>
<!DOCTYPE svg PUBLIC "-//W3C//DTD SVG 1.0//EN" "http://www.w3.org/TR/2001/PR-SVG-20010719/DTD/svg10.dtd">
<svg width="5.5cm" height="11.5cm" viewBox="358 38 204 447" xmlns="http://www.w3.org/2000/svg" xmlns:xlink="http://www.w3.org/1999/xlink">
  <g>
    <rect style="fill: #ffffff" x="360" y="40" width="201" height="44"/>
    <rect style="fill: none; fill-opacity:0; stroke-width: 2; stroke: #7f7f7f" x="360" y="40" width="201" height="44"/>
    <text font-size="15.8044" style="fill: #7f7f7f;text-anchor:middle;font-family:courier new;font-style:normal;font-weight:normal" x="460.5" y="66.7722">
      <tspan x="460.5" y="66.7722">@UnknownRegex</tspan>
    </text>
  </g>
  <g>
    <rect style="fill: #ffffff" x="360" y="120" width="201" height="44"/>
    <rect style="fill: none; fill-opacity:0; stroke-width: 2; stroke: #000000" x="360" y="120" width="201" height="44"/>
    <text font-size="15.8044" style="fill: #000000;text-anchor:middle;font-family:courier new;font-style:normal;font-weight:normal" x="460.5" y="146.772">
      <tspan x="460.5" y="146.772">@Regex(0) = @Regex</tspan>
    </text>
  </g>
  <g>
    <rect style="fill: #ffffff" x="360" y="280" width="201" height="44"/>
    <rect style="fill: none; fill-opacity:0; stroke-width: 2; stroke: #000000" x="360" y="280" width="201" height="44"/>
    <text font-size="15.8044" style="fill: #000000;text-anchor:middle;font-family:courier new;font-style:normal;font-weight:normal" x="460.5" y="306.772">
      <tspan x="460.5" y="306.772">@Regex(2)</tspan>
    </text>
  </g>
  <g>
    <rect style="fill: #ffffff" x="360" y="200" width="201" height="44"/>
    <rect style="fill: none; fill-opacity:0; stroke-width: 2; stroke: #000000" x="360" y="200" width="201" height="44"/>
    <text font-size="15.8044" style="fill: #000000;text-anchor:middle;font-family:courier new;font-style:normal;font-weight:normal" x="460.5" y="226.772">
      <tspan x="460.5" y="226.772">@Regex(1)</tspan>
    </text>
  </g>
  <text font-size="12.8" style="fill: #000000;text-anchor:start;font-family:courier new;font-style:normal;font-weight:normal" x="460.5" y="142">
    <tspan x="460.5" y="142"></tspan>
  </text>
  <g>
    <rect style="fill: #ffffff" x="360" y="440" width="201" height="44"/>
    <rect style="fill: none; fill-opacity:0; stroke-width: 2; stroke: #7f7f7f" x="360" y="440" width="201" height="44"/>
    <text font-size="15.8044" style="fill: #7f7f7f;text-anchor:middle;font-family:courier new;font-style:normal;font-weight:normal" x="460.5" y="466.772">
      <tspan x="460.5" y="466.772">@RegexBottom</tspan>
    </text>
  </g>
  <g>
    <line style="fill: none; fill-opacity:0; stroke-width: 2; stroke: #000000" x1="460.5" y1="120" x2="460.5" y2="93.7361"/>
    <polygon style="fill: #000000" points="460.5,86.2361 465.5,96.2361 460.5,93.7361 455.5,96.2361 "/>
    <polygon style="fill: none; fill-opacity:0; stroke-width: 2; stroke: #000000" points="460.5,86.2361 465.5,96.2361 460.5,93.7361 455.5,96.2361 "/>
  </g>
  <g>
    <line style="fill: none; fill-opacity:0; stroke-width: 2; stroke: #000000" x1="460" y1="360" x2="460.365" y2="333.735"/>
    <polygon style="fill: #000000" points="460.469,326.236 465.33,336.304 460.365,333.735 455.331,336.165 "/>
    <polygon style="fill: none; fill-opacity:0; stroke-width: 2; stroke: #000000" points="460.469,326.236 465.33,336.304 460.365,333.735 455.331,336.165 "/>
  </g>
  <g>
    <line style="fill: none; fill-opacity:0; stroke-width: 2; stroke: #000000" x1="460.5" y1="280" x2="460.5" y2="253.736"/>
    <polygon style="fill: #000000" points="460.5,246.236 465.5,256.236 460.5,253.736 455.5,256.236 "/>
    <polygon style="fill: none; fill-opacity:0; stroke-width: 2; stroke: #000000" points="460.5,246.236 465.5,256.236 460.5,253.736 455.5,256.236 "/>
  </g>
  <g>
    <line style="fill: none; fill-opacity:0; stroke-width: 2; stroke: #000000" x1="460.5" y1="200" x2="460.5" y2="173.736"/>
    <polygon style="fill: #000000" points="460.5,166.236 465.5,176.236 460.5,173.736 455.5,176.236 "/>
    <polygon style="fill: none; fill-opacity:0; stroke-width: 2; stroke: #000000" points="460.5,166.236 465.5,176.236 460.5,173.736 455.5,176.236 "/>
  </g>
  <g>
    <line style="fill: none; fill-opacity:0; stroke-width: 2; stroke: #000000" x1="460.5" y1="440" x2="460.127" y2="411.491"/>
    <polygon style="fill: #000000" points="460.029,403.992 465.16,413.926 460.127,411.491 455.16,414.056 "/>
    <polygon style="fill: none; fill-opacity:0; stroke-width: 2; stroke: #000000" points="460.029,403.992 465.16,413.926 460.127,411.491 455.16,414.056 "/>
  </g>
  <text font-size="12.8" style="fill: #000000;text-anchor:start;font-family:courier new;font-style:normal;font-weight:normal" x="460.5" y="142">
    <tspan x="460.5" y="142"></tspan>
  </text>
  <text font-size="12.8" style="fill: #000000;text-anchor:start;font-family:courier new;font-style:normal;font-weight:normal" x="458.11" y="372.72">
    <tspan x="458.11" y="372.72">.</tspan>
  </text>
  <text font-size="12.8" style="fill: #000000;text-anchor:start;font-family:courier new;font-style:normal;font-weight:normal" x="458.078" y="381.66">
    <tspan x="458.078" y="381.66">.</tspan>
  </text>
  <text font-size="12.8" style="fill: #000000;text-anchor:start;font-family:courier new;font-style:normal;font-weight:normal" x="458.134" y="389.92">
    <tspan x="458.134" y="389.92">.</tspan>
  </text>
</svg>
