<?xml version="1.0" encoding="UTF-8" standalone="no"?>
<!DOCTYPE svg PUBLIC "-//W3C//DTD SVG 1.0//EN" "http://www.w3.org/TR/2001/PR-SVG-20010719/DTD/svg10.dtd">
<svg width="9.5cm" height="4.5cm" viewBox="146 238 365 175" xmlns="http://www.w3.org/2000/svg" xmlns:xlink="http://www.w3.org/1999/xlink">
  <g>
    <rect style="fill: #ffffff" x="349.452" y="304" width="160" height="42"/>
    <rect style="fill: none; fill-opacity:0; stroke-width: 2; stroke: #000000" x="349.452" y="304" width="160" height="42"/>
    <text font-size="16" style="fill: #000000;text-anchor:middle;font-family:courier new;font-style:normal;font-weight:normal" x="429.452" y="329.85">
      <tspan x="429.452" y="329.85">@InvalidFormat</tspan>
    </text>
  </g>
  <g>
    <rect style="fill: #ffffff" x="250.274" y="239.028" width="160" height="42"/>
    <rect style="fill: none; fill-opacity:0; stroke-width: 2; stroke: #000000" x="250.274" y="239.028" width="160" height="42"/>
    <text font-size="16" style="fill: #000000;text-anchor:middle;font-family:courier new;font-style:normal;font-weight:normal" x="330.274" y="264.878">
      <tspan x="330.274" y="264.878">@Unqualified</tspan>
    </text>
  </g>
  <g>
    <line style="fill: none; fill-opacity:0; stroke-width: 2; stroke: #000000" x1="429.452" y1="304" x2="393.6" y2="288.104"/>
    <polygon style="fill: #000000" points="396.437,281.705 380.801,282.43 390.763,294.504 "/>
    <polygon style="fill: none; fill-opacity:0; stroke-width: 2; stroke: #000000" points="396.437,281.705 380.801,282.43 390.763,294.504 "/>
  </g>
  <g>
    <line style="fill: none; fill-opacity:0; stroke-width: 2; stroke: #000000" x1="227.446" y1="300" x2="259.858" y2="287.4"/>
    <polygon style="fill: #000000" points="262.394,293.925 272.907,282.328 257.322,280.876 "/>
    <polygon style="fill: none; fill-opacity:0; stroke-width: 2; stroke: #000000" points="262.394,293.925 272.907,282.328 257.322,280.876 "/>
  </g>
  <g>
    <rect style="fill: #ffffff" x="250" y="369.95" width="160" height="42"/>
    <rect style="fill: none; fill-opacity:0; stroke-width: 2; stroke: #000000" x="250" y="369.95" width="160" height="42"/>
    <text font-size="16" style="fill: #000000;text-anchor:middle;font-family:courier new;font-style:normal;font-weight:normal" x="330" y="395.8">
      <tspan x="330" y="395.8">@FormatBottom</tspan>
    </text>
  </g>
  <g>
    <rect style="fill: #ffffff" x="155.446" y="308" width="160" height="42"/>
    <rect style="fill: none; fill-opacity:0; stroke-width: 2; stroke: #000000" x="155.446" y="308" width="160" height="42"/>
    <text font-size="16" style="fill: #000000;text-anchor:middle;font-family:courier new;font-style:normal;font-weight:normal" x="235.446" y="333.85">
      <tspan x="235.446" y="333.85"></tspan>
    </text>
  </g>
  <g>
    <line style="fill: none; fill-opacity:0; stroke-width: 2; stroke: #000000" x1="296.424" y1="368.951" x2="281.569" y2="359.219"/>
    <polygon style="fill: #000000" points="285.406,353.364 269.859,351.547 277.733,365.074 "/>
    <polygon style="fill: none; fill-opacity:0; stroke-width: 2; stroke: #000000" points="285.406,353.364 269.859,351.547 277.733,365.074 "/>
  </g>
  <g>
    <line style="fill: none; fill-opacity:0; stroke-width: 2; stroke: #000000" x1="363.179" y1="368.948" x2="383.772" y2="355.292"/>
    <polygon style="fill: #000000" points="387.641,361.126 395.44,347.555 379.903,349.458 "/>
    <polygon style="fill: none; fill-opacity:0; stroke-width: 2; stroke: #000000" points="387.641,361.126 395.44,347.555 379.903,349.458 "/>
  </g>
  <g>
    <rect style="fill: #ffffff" x="151.446" y="304" width="160" height="42"/>
    <rect style="fill: none; fill-opacity:0; stroke-width: 2; stroke: #000000" x="151.446" y="304" width="160" height="42"/>
    <text font-size="16" style="fill: #000000;text-anchor:middle;font-family:courier new;font-style:normal;font-weight:normal" x="231.446" y="329.85">
      <tspan x="231.446" y="329.85"></tspan>
    </text>
  </g>
  <g>
    <rect style="fill: #ffffff" x="147.446" y="300" width="160" height="42"/>
    <rect style="fill: none; fill-opacity:0; stroke-width: 2; stroke: #000000" x="147.446" y="300" width="160" height="42"/>
    <text font-size="16" style="fill: #000000;text-anchor:middle;font-family:courier new;font-style:normal;font-weight:normal" x="227.446" y="325.85">
      <tspan x="227.446" y="325.85">@Format(...,)</tspan>
    </text>
  </g>
  <text font-size="12.8" style="fill: #000000;text-anchor:start;font-family:courier new;font-style:normal;font-weight:normal" x="227.446" y="321">
    <tspan x="227.446" y="321"></tspan>
  </text>
</svg>
